<svg xmlns="http://www.w3.org/2000/svg" xmlns:xlink="http://www.w3.org/1999/xlink" xmlns:lucid="lucid" width="1010" height="454.61"><g transform="translate(-197.66666666666652 -119.36302716340666)" lucid:page-tab-id="0_0"><path d="M0 0h1870.87v1322.84H0z" fill="#fff"/><path d="M237.67 195.86a6 6 0 0 1 6-6h128a6 6 0 0 1 6 6v88a6 6 0 0 1-6 6h-128a6 6 0 0 1-6-6z" stroke="#3a414a" fill="#fff"/><use xlink:href="#a" transform="matrix(1,0,0,1,242.66666666666657,194.86302716340666) translate(41.60493827160494 48.71527777777778)"/><path d="M589.57 196.1a6 6 0 0 1 6-6h68a6 6 0 0 1 6 6v87.76a6 6 0 0 1-6 6h-68a6 6 0 0 1-6-6z" stroke="#3a414a" fill="#c3f7c8"/><use xlink:href="#b" transform="matrix(1,0,0,1,594.56493849032,195.1050452723446) translate(-1.4197530864197532 22.77777777777778)"/><use xlink:href="#c" transform="matrix(1,0,0,1,594.56493849032,195.1050452723446) translate(2.962962962962969 49.44444444444444)"/><use xlink:href="#d" transform="matrix(1,0,0,1,594.56493849032,195.1050452723446) translate(28.82716049382716 76.11111111111111)"/><path d="M217.92 139.86a.25.25 0 0 1 .25-.25h969a.25.25 0 0 1 .25.26.25.25 0 0 1-.25.25h-969a.25.25 0 0 1-.25-.24zM217.92 339.86a.25.25 0 0 1 .25-.25h969a.25.25 0 0 1 .25.26.25.25 0 0 1-.25.25h-969a.25.25 0 0 1-.25-.24zM217.92 539.86a.25.25 0 0 1 .25-.25h969a.25.25 0 0 1 .25.26.25.25 0 0 1-.25.25h-969a.25.25 0 0 1-.25-.24z" stroke="#3a414a" stroke-width=".5" fill="none"/><path d="M237.67 395.86a6 6 0 0 1 6-6h128a6 6 0 0 1 6 6v88a6 6 0 0 1-6 6h-128a6 6 0 0 1-6-6z" stroke="#3a414a" fill="#fff"/><use xlink:href="#e" transform="matrix(1,0,0,1,242.66666666666657,394.8630271634066) translate(33.425925925925924 37.46527777777778)"/><use xlink:href="#f" transform="matrix(1,0,0,1,242.66666666666657,394.8630271634066) translate(27.376543209876544 64.13194444444446)"/><path d="M855.5 195.36a6 6 0 0 1 6-6h68a6 6 0 0 1 6 6v87.76a6 6 0 0 1-6 6h-68a6 6 0 0 1-6-6z" stroke="#3a414a" fill="#ffd6f5"/><use xlink:href="#b" transform="matrix(1,0,0,1,860.5140744021467,194.36302716340654) translate(-1.4197530864197532 22.77777777777778)"/><use xlink:href="#c" transform="matrix(1,0,0,1,860.5140744021467,194.36302716340654) translate(2.962962962962969 49.44444444444444)"/><use xlink:href="#g" transform="matrix(1,0,0,1,860.5140744021467,194.36302716340654) translate(28.82716049382716 76.11111111111111)"/><path d="M1062.4 396.88a6 6 0 0 1 6-6h8a6 6 0 0 1 6 6v87.76a6 6 0 0 1-6 6h-8a6 6 0 0 1-6-6z" stroke="#3a414a" fill="#c3f7c8"/><path d="M1110.78 396.88a6 6 0 0 1 6-6h8a6 6 0 0 1 6 6v87.76a6 6 0 0 1-6 6h-8a6 6 0 0 1-6-6z" stroke="#3a414a" fill="#ffd6f5"/><path d="M944.7 195.86a6 6 0 0 1 6-6h68a6 6 0 0 1 6 6v87.76a6 6 0 0 1-6 6h-68a6 6 0 0 1-6-6z" stroke="#3a414a" fill="#fff7a1"/><use xlink:href="#h" transform="matrix(1,0,0,1,949.7117701670179,194.86302716340654) translate(4.228395061728399 22.77777777777778)"/><use xlink:href="#i" transform="matrix(1,0,0,1,949.7117701670179,194.86302716340654) translate(6.60493827160494 49.44444444444444)"/><use xlink:href="#j" transform="matrix(1,0,0,1,949.7117701670179,194.86302716340654) translate(-0.7407407407407405 76.11111111111111)"/><path d="M500.92 196.36a6 6 0 0 1 6-6h68a6 6 0 0 1 6 6v87.76a6 6 0 0 1-6 6h-68a6 6 0 0 1-6-6z" stroke="#3a414a" fill="#fff7a1"/><use xlink:href="#h" transform="matrix(1,0,0,1,505.91522651971104,195.36302716340666) translate(4.228395061728399 22.77777777777778)"/><use xlink:href="#i" transform="matrix(1,0,0,1,505.91522651971104,195.36302716340666) translate(6.60493827160494 49.44444444444444)"/><use xlink:href="#j" transform="matrix(1,0,0,1,505.91522651971104,195.36302716340666) translate(-0.7407407407407405 76.11111111111111)"/><path d="M1052.65 392.4a1.25 1.25 0 0 1 1.25 1.24v94.5a1.25 1.25 0 0 1-1.25 1.25 1.25 1.25 0 0 1-1.25-1.26v-94.5a1.25 1.25 0 0 1 1.25-1.25zM1140.17 392.13a1.25 1.25 0 0 1 1.25 1.25v94.5a1.25 1.25 0 0 1-1.25 1.25 1.25 1.25 0 0 1-1.25-1.25v-94.5a1.25 1.25 0 0 1 1.25-1.25z" stroke="#000" stroke-width="2.5" fill="none"/><path d="M386.32 195.86a6 6 0 0 1 6-6h93.95a6 6 0 0 1 6 6v87.76a6 6 0 0 1-6 6h-93.95a6 6 0 0 1-6-6z" stroke="#3a414a" fill="#fff"/><use xlink:href="#b" transform="matrix(1,0,0,1,391.3163786372755,194.86302716340666) translate(11.580246913580247 22.77777777777778)"/><use xlink:href="#k" transform="matrix(1,0,0,1,391.3163786372755,194.86302716340666) translate(-2.555555555555557 49.44444444444444)"/><use xlink:href="#l" transform="matrix(1,0,0,1,391.3163786372755,194.86302716340666) translate(10.407407407407412 76.11111111111111)"/><path d="M500.92 396.1a6 6 0 0 1 6-6h524.75a6 6 0 0 1 6 6v87.76a6 6 0 0 1-6 6H506.9a6 6 0 0 1-5.98-6z" stroke="#3a414a" fill="#fff"/><g><use xlink:href="#m" transform="matrix(1,0,0,1,505.9152265197109,395.10504527234457) translate(212.94444444444446 48.71527777777778)"/></g><path d="M678.2 196.36a6 6 0 0 1 6-6h68a6 6 0 0 1 6 6v87.76a6 6 0 0 1-6 6h-68a6 6 0 0 1-6-6z" stroke="#3a414a" fill="#fff7a1"/><g><use xlink:href="#h" transform="matrix(1,0,0,1,683.2146504609289,195.36302716340666) translate(4.228395061728399 22.77777777777778)"/><use xlink:href="#i" transform="matrix(1,0,0,1,683.2146504609289,195.36302716340666) translate(6.60493827160494 49.44444444444444)"/><use xlink:href="#j" transform="matrix(1,0,0,1,683.2146504609289,195.36302716340666) translate(-0.7407407407407405 76.11111111111111)"/></g><path d="M766.86 196.36a6 6 0 0 1 6-6h68a6 6 0 0 1 6 6v87.76a6 6 0 0 1-6 6h-68a6 6 0 0 1-6-6z" stroke="#3a414a" fill="#fff7a1"/><g><use xlink:href="#h" transform="matrix(1,0,0,1,771.8643624315378,195.36302716340666) translate(4.228395061728399 22.77777777777778)"/><use xlink:href="#i" transform="matrix(1,0,0,1,771.8643624315378,195.36302716340666) translate(6.60493827160494 49.44444444444444)"/><use xlink:href="#j" transform="matrix(1,0,0,1,771.8643624315378,195.36302716340666) translate(-0.7407407407407405 76.11111111111111)"/></g><g><path d="M1092.14 392.4a1.25 1.25 0 0 1 1.25 1.24v94.5a1.25 1.25 0 0 1-1.26 1.25 1.25 1.25 0 0 1-1.25-1.26v-94.5a1.25 1.25 0 0 1 1.24-1.25z" stroke="#000" stroke-width="2.5" fill="none"/></g><g><path d="M1101.4 392.4a1.25 1.25 0 0 1 1.24 1.24v94.5a1.25 1.25 0 0 1-1.25 1.25 1.25 1.25 0 0 1-1.26-1.26v-94.5a1.25 1.25 0 0 1 1.25-1.25z" stroke="#000" stroke-width="2.5" fill="none"/></g><path d="M1063.6 496.64a6 6 0 0 1 6-6h60.4a6 6 0 0 1 6 6v51.33a6 6 0 0 1-6 6h-60.4a6 6 0 0 1-6-6z" stroke="#000" stroke-opacity="0" fill="#fff" fill-opacity="0"/><defs><path fill="#3a414a" d="M67-125c0 53 21 87 73 88 37 1 54-22 65-47l45 17C233-25 199 4 140 4 58 4 20-42 15-125 8-235 124-281 211-232c18 10 29 29 36 50l-46 12c-8-25-30-41-62-41-52 0-71 34-72 86" id="n"/><path fill="#3a414a" d="M24-248c93 1 206-16 204 79-1 75-69 88-152 82V0H24v-248zm52 121c47 0 100 7 100-41 0-47-54-39-100-39v80" id="o"/><path fill="#3a414a" d="M238-95c0 69-44 99-111 99C63 4 22-25 22-93v-155h51v151c-1 38 19 59 55 60 90 1 49-130 58-211h52v153" id="p"/><g id="a"><use transform="matrix(0.06172839506172839,0,0,0.06172839506172839,0,0)" xlink:href="#n"/><use transform="matrix(0.06172839506172839,0,0,0.06172839506172839,15.987654320987653,0)" xlink:href="#o"/><use transform="matrix(0.06172839506172839,0,0,0.06172839506172839,30.80246913580247,0)" xlink:href="#p"/></g><path fill="#3a414a" d="M30 0v-248h33v221h125V0H30" id="q"/><path fill="#3a414a" d="M141-36C126-15 110 5 73 4 37 3 15-17 15-53c-1-64 63-63 125-63 3-35-9-54-41-54-24 1-41 7-42 31l-33-3c5-37 33-52 76-52 45 0 72 20 72 64v82c-1 20 7 32 28 27v20c-31 9-61-2-59-35zM48-53c0 20 12 33 32 33 41-3 63-29 60-74-43 2-92-5-92 41" id="r"/><path fill="#3a414a" d="M84 4C-5 8 30-112 23-190h32v120c0 31 7 50 39 49 72-2 45-101 50-169h31l1 190h-30c-1-10 1-25-2-33-11 22-28 36-60 37" id="s"/><path fill="#3a414a" d="M117-194c89-4 53 116 60 194h-32v-121c0-31-8-49-39-48C34-167 62-67 57 0H25l-1-190h30c1 10-1 24 2 32 11-22 29-35 61-36" id="t"/><path fill="#3a414a" d="M96-169c-40 0-48 33-48 73s9 75 48 75c24 0 41-14 43-38l32 2c-6 37-31 61-74 61-59 0-76-41-82-99-10-93 101-131 147-64 4 7 5 14 7 22l-32 3c-4-21-16-35-41-35" id="u"/><path fill="#3a414a" d="M106-169C34-169 62-67 57 0H25v-261h32l-1 103c12-21 28-36 61-36 89 0 53 116 60 194h-32v-121c2-32-8-49-39-48" id="v"/><g id="b"><use transform="matrix(0.06172839506172839,0,0,0.06172839506172839,0,0)" xlink:href="#q"/><use transform="matrix(0.06172839506172839,0,0,0.06172839506172839,12.345679012345679,0)" xlink:href="#r"/><use transform="matrix(0.06172839506172839,0,0,0.06172839506172839,24.691358024691358,0)" xlink:href="#s"/><use transform="matrix(0.06172839506172839,0,0,0.06172839506172839,37.03703703703704,0)" xlink:href="#t"/><use transform="matrix(0.06172839506172839,0,0,0.06172839506172839,49.382716049382715,0)" xlink:href="#u"/><use transform="matrix(0.06172839506172839,0,0,0.06172839506172839,60.49382716049382,0)" xlink:href="#v"/></g><path fill="#3a414a" d="M194 0L95-120 63-95V0H30v-248h33v124l119-124h40L117-140 236 0h-42" id="w"/><path fill="#3a414a" d="M100-194c63 0 86 42 84 106H49c0 40 14 67 53 68 26 1 43-12 49-29l28 8c-11 28-37 45-77 45C44 4 14-33 15-96c1-61 26-98 85-98zm52 81c6-60-76-77-97-28-3 7-6 17-6 28h103" id="x"/><path fill="#3a414a" d="M114-163C36-179 61-72 57 0H25l-1-190h30c1 12-1 29 2 39 6-27 23-49 58-41v29" id="y"/><path fill="#3a414a" d="M24 0v-261h32V0H24" id="z"/><g id="c"><use transform="matrix(0.06172839506172839,0,0,0.06172839506172839,0,0)" xlink:href="#w"/><use transform="matrix(0.06172839506172839,0,0,0.06172839506172839,14.814814814814813,0)" xlink:href="#x"/><use transform="matrix(0.06172839506172839,0,0,0.06172839506172839,27.160493827160494,0)" xlink:href="#y"/><use transform="matrix(0.06172839506172839,0,0,0.06172839506172839,34.50617283950617,0)" xlink:href="#t"/><use transform="matrix(0.06172839506172839,0,0,0.06172839506172839,46.85185185185185,0)" xlink:href="#x"/><use transform="matrix(0.06172839506172839,0,0,0.06172839506172839,59.197530864197525,0)" xlink:href="#z"/></g><path fill="#3a414a" d="M101-251c68 0 85 55 85 127S166 4 100 4C33 4 14-52 14-124c0-73 17-127 87-127zm-1 229c47 0 54-49 54-102s-4-102-53-102c-51 0-55 48-55 102 0 53 5 102 54 102" id="A"/><use transform="matrix(0.06172839506172839,0,0,0.06172839506172839,0,0)" xlink:href="#A" id="d"/><path fill="#3a414a" d="M24-248c120-7 223 5 221 122C244-46 201 0 124 0H24v-248zM76-40c74 7 117-18 117-86 0-67-45-88-117-82v168" id="B"/><path fill="#3a414a" d="M199 0l-22-63H83L61 0H9l90-248h61L250 0h-51zm-33-102l-36-108c-10 38-24 72-36 108h72" id="C"/><g id="e"><use transform="matrix(0.06172839506172839,0,0,0.06172839506172839,0,0)" xlink:href="#n"/><use transform="matrix(0.06172839506172839,0,0,0.06172839506172839,15.987654320987653,0)" xlink:href="#p"/><use transform="matrix(0.06172839506172839,0,0,0.06172839506172839,31.975308641975307,0)" xlink:href="#B"/><use transform="matrix(0.06172839506172839,0,0,0.06172839506172839,47.96296296296296,0)" xlink:href="#C"/></g><path fill="#3a414a" d="M169-182c-1-43-94-46-97-3 18 66 151 10 154 114 3 95-165 93-204 36-6-8-10-19-12-30l50-8c3 46 112 56 116 5-17-69-150-10-154-114-4-87 153-88 188-35 5 8 8 18 10 28" id="D"/><path fill="#3a414a" d="M115-3C79 11 28 4 28-45v-112H4v-33h27l15-45h31v45h36v33H77v99c-1 23 16 31 38 25v30" id="E"/><path fill="#3a414a" d="M135-150c-39-12-60 13-60 57V0H25l-1-190h47c2 13-1 29 3 40 6-28 27-53 61-41v41" id="F"/><path fill="#3a414a" d="M185-48c-13 30-37 53-82 52C43 2 14-33 14-96s30-98 90-98c62 0 83 45 84 108H66c0 31 8 55 39 56 18 0 30-7 34-22zm-45-69c5-46-57-63-70-21-2 6-4 13-4 21h74" id="G"/><path fill="#3a414a" d="M133-34C117-15 103 5 69 4 32 3 11-16 11-54c-1-60 55-63 116-61 1-26-3-47-28-47-18 1-26 9-28 27l-52-2c7-38 36-58 82-57s74 22 75 68l1 82c-1 14 12 18 25 15v27c-30 8-71 5-69-32zm-48 3c29 0 43-24 42-57-32 0-66-3-65 30 0 17 8 27 23 27" id="H"/><path fill="#3a414a" d="M220-157c-53 9-28 100-34 157h-49v-107c1-27-5-49-29-50C55-147 81-57 75 0H25l-1-190h47c2 12-1 28 3 38 10-53 101-56 108 0 13-22 24-43 59-42 82 1 51 116 57 194h-49v-107c-1-25-5-48-29-50" id="I"/><g id="f"><use transform="matrix(0.06172839506172839,0,0,0.06172839506172839,0,0)" xlink:href="#D"/><use transform="matrix(0.06172839506172839,0,0,0.06172839506172839,14.814814814814813,0)" xlink:href="#E"/><use transform="matrix(0.06172839506172839,0,0,0.06172839506172839,22.160493827160494,0)" xlink:href="#F"/><use transform="matrix(0.06172839506172839,0,0,0.06172839506172839,30.80246913580247,0)" xlink:href="#G"/><use transform="matrix(0.06172839506172839,0,0,0.06172839506172839,43.148148148148145,0)" xlink:href="#H"/><use transform="matrix(0.06172839506172839,0,0,0.06172839506172839,55.49382716049382,0)" xlink:href="#I"/></g><path fill="#3a414a" d="M27 0v-27h64v-190l-56 39v-29l58-41h29v221h61V0H27" id="J"/><use transform="matrix(0.06172839506172839,0,0,0.06172839506172839,0,0)" xlink:href="#J" id="g"/><path fill="#3a414a" d="M212-179c-10-28-35-45-73-45-59 0-87 40-87 99 0 60 29 101 89 101 43 0 62-24 78-52l27 14C228-24 195 4 139 4 59 4 22-46 18-125c-6-104 99-153 187-111 19 9 31 26 39 46" id="K"/><path fill="#3a414a" d="M232-93c-1 65-40 97-104 97C67 4 28-28 28-90v-158h33c8 89-33 224 67 224 102 0 64-133 71-224h33v155" id="L"/><path fill="#3a414a" d="M30-248c118-7 216 8 213 122C240-48 200 0 122 0H30v-248zM63-27c89 8 146-16 146-99s-60-101-146-95v194" id="M"/><path fill="#3a414a" d="M205 0l-28-72H64L36 0H1l101-248h38L239 0h-34zm-38-99l-47-123c-12 45-31 82-46 123h93" id="N"/><g id="h"><use transform="matrix(0.06172839506172839,0,0,0.06172839506172839,0,0)" xlink:href="#K"/><use transform="matrix(0.06172839506172839,0,0,0.06172839506172839,15.987654320987653,0)" xlink:href="#L"/><use transform="matrix(0.06172839506172839,0,0,0.06172839506172839,31.975308641975307,0)" xlink:href="#M"/><use transform="matrix(0.06172839506172839,0,0,0.06172839506172839,47.96296296296296,0)" xlink:href="#N"/></g><path fill="#3a414a" d="M30 0v-248h187v28H63v79h144v27H63v87h162V0H30" id="O"/><path fill="#3a414a" d="M108 0H70L1-190h34L89-25l56-165h34" id="P"/><path fill="#3a414a" d="M59-47c-2 24 18 29 38 22v24C64 9 27 4 27-40v-127H5v-23h24l9-43h21v43h35v23H59v120" id="Q"/><g id="i"><use transform="matrix(0.06172839506172839,0,0,0.06172839506172839,0,0)" xlink:href="#O"/><use transform="matrix(0.06172839506172839,0,0,0.06172839506172839,14.814814814814813,0)" xlink:href="#P"/><use transform="matrix(0.06172839506172839,0,0,0.06172839506172839,25.925925925925924,0)" xlink:href="#x"/><use transform="matrix(0.06172839506172839,0,0,0.06172839506172839,38.2716049382716,0)" xlink:href="#t"/><use transform="matrix(0.06172839506172839,0,0,0.06172839506172839,50.61728395061728,0)" xlink:href="#Q"/></g><path fill="#3a414a" d="M233-177c-1 41-23 64-60 70L243 0h-38l-65-103H63V0H30v-248c88 3 205-21 203 71zM63-129c60-2 137 13 137-47 0-61-80-42-137-45v92" id="R"/><path fill="#3a414a" d="M100-194c62-1 85 37 85 99 1 63-27 99-86 99S16-35 15-95c0-66 28-99 85-99zM99-20c44 1 53-31 53-75 0-43-8-75-51-75s-53 32-53 75 10 74 51 75" id="S"/><path fill="#3a414a" d="M85-194c31 0 48 13 60 33l-1-100h32l1 261h-30c-2-10 0-23-3-31C134-8 116 4 85 4 32 4 16-35 15-94c0-66 23-100 70-100zm9 24c-40 0-46 34-46 75 0 40 6 74 45 74 42 0 51-32 51-76 0-42-9-74-50-73" id="T"/><g id="j"><use transform="matrix(0.06172839506172839,0,0,0.06172839506172839,0,0)" xlink:href="#R"/><use transform="matrix(0.06172839506172839,0,0,0.06172839506172839,15.987654320987653,0)" xlink:href="#x"/><use transform="matrix(0.06172839506172839,0,0,0.06172839506172839,28.333333333333332,0)" xlink:href="#u"/><use transform="matrix(0.06172839506172839,0,0,0.06172839506172839,39.44444444444444,0)" xlink:href="#S"/><use transform="matrix(0.06172839506172839,0,0,0.06172839506172839,51.79012345679012,0)" xlink:href="#y"/><use transform="matrix(0.06172839506172839,0,0,0.06172839506172839,59.1358024691358,0)" xlink:href="#T"/></g><path fill="#3a414a" d="M185-189c-5-48-123-54-124 2 14 75 158 14 163 119 3 78-121 87-175 55-17-10-28-26-33-46l33-7c5 56 141 63 141-1 0-78-155-14-162-118-5-82 145-84 179-34 5 7 8 16 11 25" id="U"/><path fill="#3a414a" d="M24-231v-30h32v30H24zM24 0v-190h32V0H24" id="V"/><path fill="#3a414a" d="M177-190C167-65 218 103 67 71c-23-6-38-20-44-43l32-5c15 47 100 32 89-28v-30C133-14 115 1 83 1 29 1 15-40 15-95c0-56 16-97 71-98 29-1 48 16 59 35 1-10 0-23 2-32h30zM94-22c36 0 50-32 50-73 0-42-14-75-50-75-39 0-46 34-46 75s6 73 46 73" id="W"/><g id="k"><use transform="matrix(0.06172839506172839,0,0,0.06172839506172839,0,0)" xlink:href="#U"/><use transform="matrix(0.06172839506172839,0,0,0.06172839506172839,14.814814814814813,0)" xlink:href="#r"/><use transform="matrix(0.06172839506172839,0,0,0.06172839506172839,27.160493827160494,0)" xlink:href="#Q"/><use transform="matrix(0.06172839506172839,0,0,0.06172839506172839,33.333333333333336,0)" xlink:href="#s"/><use transform="matrix(0.06172839506172839,0,0,0.06172839506172839,45.67901234567901,0)" xlink:href="#y"/><use transform="matrix(0.06172839506172839,0,0,0.06172839506172839,53.02469135802469,0)" xlink:href="#r"/><use transform="matrix(0.06172839506172839,0,0,0.06172839506172839,65.37037037037037,0)" xlink:href="#Q"/><use transform="matrix(0.06172839506172839,0,0,0.06172839506172839,71.5432098765432,0)" xlink:href="#V"/><use transform="matrix(0.06172839506172839,0,0,0.06172839506172839,76.41975308641975,0)" xlink:href="#t"/><use transform="matrix(0.06172839506172839,0,0,0.06172839506172839,88.76543209876543,0)" xlink:href="#W"/></g><path fill="#3a414a" d="M135-143c-3-34-86-38-87 0 15 53 115 12 119 90S17 21 10-45l28-5c4 36 97 45 98 0-10-56-113-15-118-90-4-57 82-63 122-42 12 7 21 19 24 35" id="X"/><g id="l"><use transform="matrix(0.06172839506172839,0,0,0.06172839506172839,0,0)" xlink:href="#w"/><use transform="matrix(0.06172839506172839,0,0,0.06172839506172839,14.814814814814813,0)" xlink:href="#x"/><use transform="matrix(0.06172839506172839,0,0,0.06172839506172839,27.160493827160494,0)" xlink:href="#y"/><use transform="matrix(0.06172839506172839,0,0,0.06172839506172839,34.50617283950617,0)" xlink:href="#t"/><use transform="matrix(0.06172839506172839,0,0,0.06172839506172839,46.85185185185185,0)" xlink:href="#x"/><use transform="matrix(0.06172839506172839,0,0,0.06172839506172839,59.197530864197525,0)" xlink:href="#z"/><use transform="matrix(0.06172839506172839,0,0,0.06172839506172839,64.07407407407406,0)" xlink:href="#X"/></g><g id="m"><use transform="matrix(0.06172839506172839,0,0,0.06172839506172839,0,0)" xlink:href="#U"/><use transform="matrix(0.06172839506172839,0,0,0.06172839506172839,14.814814814814813,0)" xlink:href="#r"/><use transform="matrix(0.06172839506172839,0,0,0.06172839506172839,27.160493827160494,0)" xlink:href="#Q"/><use transform="matrix(0.06172839506172839,0,0,0.06172839506172839,33.333333333333336,0)" xlink:href="#s"/><use transform="matrix(0.06172839506172839,0,0,0.06172839506172839,45.67901234567901,0)" xlink:href="#y"/><use transform="matrix(0.06172839506172839,0,0,0.06172839506172839,53.02469135802469,0)" xlink:href="#r"/><use transform="matrix(0.06172839506172839,0,0,0.06172839506172839,65.37037037037037,0)" xlink:href="#Q"/><use transform="matrix(0.06172839506172839,0,0,0.06172839506172839,71.5432098765432,0)" xlink:href="#V"/><use transform="matrix(0.06172839506172839,0,0,0.06172839506172839,76.41975308641975,0)" xlink:href="#S"/><use transform="matrix(0.06172839506172839,0,0,0.06172839506172839,88.76543209876543,0)" xlink:href="#t"/></g></defs></g></svg>